<mxfile host="app.diagrams.net" modified="2024-05-06T02:45:13.010Z" agent="Mozilla/5.0 (Windows NT 10.0; Win64; x64) AppleWebKit/537.36 (KHTML, like Gecko) Chrome/124.0.0.0 Safari/537.36" etag="sjqb66AKEanN3tFw-FCH" version="24.3.1" type="github">
  <diagram name="PÃ¡gina-1" id="b2jRFqUZYnmrYUsRm_Oo">
    <mxGraphModel dx="1050" dy="2895" grid="1" gridSize="10" guides="1" tooltips="1" connect="1" arrows="1" fold="1" page="1" pageScale="1" pageWidth="827" pageHeight="1169" math="0" shadow="0">
      <root>
        <mxCell id="0" />
        <mxCell id="1" parent="0" />
        <mxCell id="cl9YCHPWA_k3voPx7x7O-1" value="Inicio" style="ellipse;whiteSpace=wrap;html=1;" vertex="1" parent="1">
          <mxGeometry x="350" y="-2310" width="90" height="40" as="geometry" />
        </mxCell>
        <mxCell id="cl9YCHPWA_k3voPx7x7O-6" style="edgeStyle=orthogonalEdgeStyle;rounded=0;orthogonalLoop=1;jettySize=auto;html=1;exitX=0.5;exitY=1;exitDx=0;exitDy=0;entryX=0.5;entryY=0;entryDx=0;entryDy=0;" edge="1" parent="1" source="cl9YCHPWA_k3voPx7x7O-3" target="cl9YCHPWA_k3voPx7x7O-5">
          <mxGeometry relative="1" as="geometry" />
        </mxCell>
        <mxCell id="cl9YCHPWA_k3voPx7x7O-3" value="Calcular D = B * B - 4 * A * C" style="shape=parallelogram;perimeter=parallelogramPerimeter;whiteSpace=wrap;html=1;fixedSize=1;" vertex="1" parent="1">
          <mxGeometry x="310" y="-2240" width="180" height="70" as="geometry" />
        </mxCell>
        <mxCell id="cl9YCHPWA_k3voPx7x7O-4" style="edgeStyle=orthogonalEdgeStyle;rounded=0;orthogonalLoop=1;jettySize=auto;html=1;exitX=0.5;exitY=1;exitDx=0;exitDy=0;entryX=0.44;entryY=-0.043;entryDx=0;entryDy=0;entryPerimeter=0;" edge="1" parent="1" source="cl9YCHPWA_k3voPx7x7O-1" target="cl9YCHPWA_k3voPx7x7O-3">
          <mxGeometry relative="1" as="geometry" />
        </mxCell>
        <mxCell id="cl9YCHPWA_k3voPx7x7O-8" style="edgeStyle=orthogonalEdgeStyle;rounded=0;orthogonalLoop=1;jettySize=auto;html=1;exitX=1;exitY=0.5;exitDx=0;exitDy=0;entryX=0;entryY=0.5;entryDx=0;entryDy=0;" edge="1" parent="1" source="cl9YCHPWA_k3voPx7x7O-5" target="cl9YCHPWA_k3voPx7x7O-7">
          <mxGeometry relative="1" as="geometry" />
        </mxCell>
        <mxCell id="cl9YCHPWA_k3voPx7x7O-22" style="edgeStyle=orthogonalEdgeStyle;rounded=0;orthogonalLoop=1;jettySize=auto;html=1;exitX=0.5;exitY=1;exitDx=0;exitDy=0;entryX=0.5;entryY=0;entryDx=0;entryDy=0;" edge="1" parent="1" source="cl9YCHPWA_k3voPx7x7O-5" target="cl9YCHPWA_k3voPx7x7O-17">
          <mxGeometry relative="1" as="geometry" />
        </mxCell>
        <mxCell id="cl9YCHPWA_k3voPx7x7O-5" value="D &amp;gt; 0 y A != 0" style="rhombus;whiteSpace=wrap;html=1;" vertex="1" parent="1">
          <mxGeometry x="340" y="-2140" width="120" height="120" as="geometry" />
        </mxCell>
        <mxCell id="cl9YCHPWA_k3voPx7x7O-10" style="edgeStyle=orthogonalEdgeStyle;rounded=0;orthogonalLoop=1;jettySize=auto;html=1;exitX=0.5;exitY=1;exitDx=0;exitDy=0;entryX=0.5;entryY=0;entryDx=0;entryDy=0;" edge="1" parent="1" source="cl9YCHPWA_k3voPx7x7O-7" target="cl9YCHPWA_k3voPx7x7O-9">
          <mxGeometry relative="1" as="geometry" />
        </mxCell>
        <mxCell id="cl9YCHPWA_k3voPx7x7O-7" value="&lt;div&gt;Calcular d_sqrt = sqrt(D)&lt;/div&gt;&lt;div&gt;&lt;br&gt;&lt;/div&gt;&lt;div&gt;Calcular x1 = (-B + d_sqrt) / (2 * A)&lt;/div&gt;&lt;div&gt;&lt;br&gt;&lt;/div&gt;&lt;div&gt;Calcular x2 = (-B - d_sqrt) / (2 * A)&lt;/div&gt;" style="shape=parallelogram;perimeter=parallelogramPerimeter;whiteSpace=wrap;html=1;fixedSize=1;" vertex="1" parent="1">
          <mxGeometry x="520" y="-2130" width="220" height="100" as="geometry" />
        </mxCell>
        <mxCell id="cl9YCHPWA_k3voPx7x7O-53" style="edgeStyle=orthogonalEdgeStyle;rounded=0;orthogonalLoop=1;jettySize=auto;html=1;exitX=1;exitY=0.5;exitDx=0;exitDy=0;entryX=0.5;entryY=1;entryDx=0;entryDy=0;" edge="1" parent="1" source="cl9YCHPWA_k3voPx7x7O-9" target="cl9YCHPWA_k3voPx7x7O-44">
          <mxGeometry relative="1" as="geometry" />
        </mxCell>
        <mxCell id="cl9YCHPWA_k3voPx7x7O-9" value="Imprimir x1 y x2" style="rounded=0;whiteSpace=wrap;html=1;" vertex="1" parent="1">
          <mxGeometry x="560" y="-2000" width="140" height="70" as="geometry" />
        </mxCell>
        <mxCell id="cl9YCHPWA_k3voPx7x7O-11" value="Si" style="text;html=1;align=center;verticalAlign=middle;resizable=0;points=[];autosize=1;strokeColor=none;fillColor=none;" vertex="1" parent="1">
          <mxGeometry x="480" y="-2110" width="30" height="30" as="geometry" />
        </mxCell>
        <mxCell id="cl9YCHPWA_k3voPx7x7O-27" style="edgeStyle=orthogonalEdgeStyle;rounded=0;orthogonalLoop=1;jettySize=auto;html=1;exitX=0.5;exitY=1;exitDx=0;exitDy=0;" edge="1" parent="1" source="cl9YCHPWA_k3voPx7x7O-12" target="cl9YCHPWA_k3voPx7x7O-26">
          <mxGeometry relative="1" as="geometry" />
        </mxCell>
        <mxCell id="cl9YCHPWA_k3voPx7x7O-12" value="&lt;div&gt;Calcular d_sqrt = sqrt(D)&lt;/div&gt;&lt;div&gt;&lt;br&gt;&lt;/div&gt;&lt;div&gt;Calcular x1 = (-B + d_sqrt) / (2 * A)&lt;/div&gt;" style="shape=parallelogram;perimeter=parallelogramPerimeter;whiteSpace=wrap;html=1;fixedSize=1;" vertex="1" parent="1">
          <mxGeometry x="80" y="-1980" width="220" height="90" as="geometry" />
        </mxCell>
        <mxCell id="cl9YCHPWA_k3voPx7x7O-24" style="edgeStyle=orthogonalEdgeStyle;rounded=0;orthogonalLoop=1;jettySize=auto;html=1;exitX=0;exitY=0.5;exitDx=0;exitDy=0;" edge="1" parent="1" source="cl9YCHPWA_k3voPx7x7O-17" target="cl9YCHPWA_k3voPx7x7O-12">
          <mxGeometry relative="1" as="geometry" />
        </mxCell>
        <mxCell id="cl9YCHPWA_k3voPx7x7O-29" style="edgeStyle=orthogonalEdgeStyle;rounded=0;orthogonalLoop=1;jettySize=auto;html=1;exitX=0.5;exitY=1;exitDx=0;exitDy=0;entryX=0.5;entryY=0;entryDx=0;entryDy=0;" edge="1" parent="1" source="cl9YCHPWA_k3voPx7x7O-17" target="cl9YCHPWA_k3voPx7x7O-28">
          <mxGeometry relative="1" as="geometry" />
        </mxCell>
        <mxCell id="cl9YCHPWA_k3voPx7x7O-17" value="D == 0 y A != 0" style="rhombus;whiteSpace=wrap;html=1;" vertex="1" parent="1">
          <mxGeometry x="350" y="-1980" width="100" height="100" as="geometry" />
        </mxCell>
        <mxCell id="cl9YCHPWA_k3voPx7x7O-23" value="No" style="text;html=1;align=center;verticalAlign=middle;resizable=0;points=[];autosize=1;strokeColor=none;fillColor=none;" vertex="1" parent="1">
          <mxGeometry x="400" y="-2012" width="40" height="30" as="geometry" />
        </mxCell>
        <mxCell id="cl9YCHPWA_k3voPx7x7O-25" value="Si" style="text;html=1;align=center;verticalAlign=middle;resizable=0;points=[];autosize=1;strokeColor=none;fillColor=none;" vertex="1" parent="1">
          <mxGeometry x="320" y="-1960" width="30" height="30" as="geometry" />
        </mxCell>
        <mxCell id="cl9YCHPWA_k3voPx7x7O-46" style="edgeStyle=orthogonalEdgeStyle;rounded=0;orthogonalLoop=1;jettySize=auto;html=1;exitX=0;exitY=0.5;exitDx=0;exitDy=0;entryX=0;entryY=0.5;entryDx=0;entryDy=0;" edge="1" parent="1" source="cl9YCHPWA_k3voPx7x7O-26" target="cl9YCHPWA_k3voPx7x7O-44">
          <mxGeometry relative="1" as="geometry" />
        </mxCell>
        <mxCell id="cl9YCHPWA_k3voPx7x7O-26" value="Imprimir x1" style="rounded=0;whiteSpace=wrap;html=1;" vertex="1" parent="1">
          <mxGeometry x="130" y="-1860" width="120" height="60" as="geometry" />
        </mxCell>
        <mxCell id="cl9YCHPWA_k3voPx7x7O-32" style="edgeStyle=orthogonalEdgeStyle;rounded=0;orthogonalLoop=1;jettySize=auto;html=1;exitX=1;exitY=0.5;exitDx=0;exitDy=0;entryX=0;entryY=0.5;entryDx=0;entryDy=0;" edge="1" parent="1" source="cl9YCHPWA_k3voPx7x7O-28" target="cl9YCHPWA_k3voPx7x7O-31">
          <mxGeometry relative="1" as="geometry" />
        </mxCell>
        <mxCell id="cl9YCHPWA_k3voPx7x7O-35" style="edgeStyle=orthogonalEdgeStyle;rounded=0;orthogonalLoop=1;jettySize=auto;html=1;exitX=0.5;exitY=1;exitDx=0;exitDy=0;" edge="1" parent="1" source="cl9YCHPWA_k3voPx7x7O-28" target="cl9YCHPWA_k3voPx7x7O-34">
          <mxGeometry relative="1" as="geometry" />
        </mxCell>
        <mxCell id="cl9YCHPWA_k3voPx7x7O-28" value="A == 0 y B != 0" style="rhombus;whiteSpace=wrap;html=1;" vertex="1" parent="1">
          <mxGeometry x="355" y="-1850" width="95" height="90" as="geometry" />
        </mxCell>
        <mxCell id="cl9YCHPWA_k3voPx7x7O-30" value="No" style="text;html=1;align=center;verticalAlign=middle;resizable=0;points=[];autosize=1;strokeColor=none;fillColor=none;" vertex="1" parent="1">
          <mxGeometry x="400" y="-1882" width="40" height="30" as="geometry" />
        </mxCell>
        <mxCell id="cl9YCHPWA_k3voPx7x7O-52" style="edgeStyle=orthogonalEdgeStyle;rounded=0;orthogonalLoop=1;jettySize=auto;html=1;exitX=1;exitY=0.5;exitDx=0;exitDy=0;entryX=1;entryY=0.5;entryDx=0;entryDy=0;" edge="1" parent="1" source="cl9YCHPWA_k3voPx7x7O-31" target="cl9YCHPWA_k3voPx7x7O-44">
          <mxGeometry relative="1" as="geometry" />
        </mxCell>
        <mxCell id="cl9YCHPWA_k3voPx7x7O-31" value="Imprimir (-C) / B" style="rounded=0;whiteSpace=wrap;html=1;" vertex="1" parent="1">
          <mxGeometry x="540" y="-1835" width="120" height="60" as="geometry" />
        </mxCell>
        <mxCell id="cl9YCHPWA_k3voPx7x7O-33" value="Si" style="text;html=1;align=center;verticalAlign=middle;resizable=0;points=[];autosize=1;strokeColor=none;fillColor=none;" vertex="1" parent="1">
          <mxGeometry x="480" y="-1830" width="30" height="30" as="geometry" />
        </mxCell>
        <mxCell id="cl9YCHPWA_k3voPx7x7O-40" style="edgeStyle=orthogonalEdgeStyle;rounded=0;orthogonalLoop=1;jettySize=auto;html=1;exitX=0;exitY=0.5;exitDx=0;exitDy=0;entryX=1;entryY=0.5;entryDx=0;entryDy=0;" edge="1" parent="1" source="cl9YCHPWA_k3voPx7x7O-34" target="cl9YCHPWA_k3voPx7x7O-39">
          <mxGeometry relative="1" as="geometry" />
        </mxCell>
        <mxCell id="cl9YCHPWA_k3voPx7x7O-41" style="edgeStyle=orthogonalEdgeStyle;rounded=0;orthogonalLoop=1;jettySize=auto;html=1;exitX=1;exitY=0.5;exitDx=0;exitDy=0;" edge="1" parent="1" source="cl9YCHPWA_k3voPx7x7O-34" target="cl9YCHPWA_k3voPx7x7O-38">
          <mxGeometry relative="1" as="geometry" />
        </mxCell>
        <mxCell id="cl9YCHPWA_k3voPx7x7O-34" value="A != 0 y B == 0" style="rhombus;whiteSpace=wrap;html=1;" vertex="1" parent="1">
          <mxGeometry x="352.5" y="-1710" width="100" height="100" as="geometry" />
        </mxCell>
        <mxCell id="cl9YCHPWA_k3voPx7x7O-36" value="No" style="text;html=1;align=center;verticalAlign=middle;resizable=0;points=[];autosize=1;strokeColor=none;fillColor=none;" vertex="1" parent="1">
          <mxGeometry x="394" y="-1740" width="40" height="30" as="geometry" />
        </mxCell>
        <mxCell id="cl9YCHPWA_k3voPx7x7O-38" value="Imprimir sqrt(C / A)" style="rounded=0;whiteSpace=wrap;html=1;" vertex="1" parent="1">
          <mxGeometry x="510" y="-1690" width="120" height="60" as="geometry" />
        </mxCell>
        <mxCell id="cl9YCHPWA_k3voPx7x7O-48" style="edgeStyle=orthogonalEdgeStyle;rounded=0;orthogonalLoop=1;jettySize=auto;html=1;exitX=0.5;exitY=1;exitDx=0;exitDy=0;" edge="1" parent="1" source="cl9YCHPWA_k3voPx7x7O-39" target="cl9YCHPWA_k3voPx7x7O-44">
          <mxGeometry relative="1" as="geometry">
            <Array as="points">
              <mxPoint x="240" y="-1600" />
              <mxPoint x="390" y="-1600" />
            </Array>
          </mxGeometry>
        </mxCell>
        <mxCell id="cl9YCHPWA_k3voPx7x7O-39" value="Imprimir&amp;nbsp; &quot; &quot;" style="rounded=0;whiteSpace=wrap;html=1;" vertex="1" parent="1">
          <mxGeometry x="180" y="-1690" width="120" height="60" as="geometry" />
        </mxCell>
        <mxCell id="cl9YCHPWA_k3voPx7x7O-42" value="Si" style="text;html=1;align=center;verticalAlign=middle;resizable=0;points=[];autosize=1;strokeColor=none;fillColor=none;" vertex="1" parent="1">
          <mxGeometry x="455" y="-1682" width="30" height="30" as="geometry" />
        </mxCell>
        <mxCell id="cl9YCHPWA_k3voPx7x7O-43" value="No" style="text;html=1;align=center;verticalAlign=middle;resizable=0;points=[];autosize=1;strokeColor=none;fillColor=none;" vertex="1" parent="1">
          <mxGeometry x="320" y="-1682" width="40" height="30" as="geometry" />
        </mxCell>
        <mxCell id="cl9YCHPWA_k3voPx7x7O-44" value="Fin" style="ellipse;whiteSpace=wrap;html=1;" vertex="1" parent="1">
          <mxGeometry x="342.5" y="-1570" width="120" height="80" as="geometry" />
        </mxCell>
        <mxCell id="cl9YCHPWA_k3voPx7x7O-49" style="edgeStyle=orthogonalEdgeStyle;rounded=0;orthogonalLoop=1;jettySize=auto;html=1;exitX=0.5;exitY=1;exitDx=0;exitDy=0;entryX=0.609;entryY=0.023;entryDx=0;entryDy=0;entryPerimeter=0;" edge="1" parent="1" source="cl9YCHPWA_k3voPx7x7O-38" target="cl9YCHPWA_k3voPx7x7O-44">
          <mxGeometry relative="1" as="geometry" />
        </mxCell>
      </root>
    </mxGraphModel>
  </diagram>
</mxfile>
